<?xml version="1.0" encoding="UTF-8" standalone="no"?>
<svg width="24px" height="24px" viewBox="0 0 24 24" version="1.1" xmlns="http://www.w3.org/2000/svg" xmlns:xlink="http://www.w3.org/1999/xlink" xmlns:sketch="http://www.bohemiancoding.com/sketch/ns">
    <!-- Generator: Sketch 3.5.2 (25235) - http://www.bohemiancoding.com/sketch -->
    <title>modern-courses</title>
    <desc>Created with Sketch.</desc>
    <defs></defs>
    <g id="Page-1" stroke="none" stroke-width="1" fill="none" fill-rule="evenodd" sketch:type="MSPage">
        <g id="modern-courses" sketch:type="MSArtboardGroup" fill="#A18CA0">
            <path d="M17.9392361,11.7604167 L12.4583333,13.4887153 C12.3055556,13.5364583 12.1527778,13.5555556 12,13.5555556 C11.8472222,13.5555556 11.6944444,13.5364583 11.5416667,13.4887153 L6.06076389,11.7604167 L5.88888889,14.7777778 C5.8125,16.1241319 8.62934028,17.2222222 12,17.2222222 C15.3706597,17.2222222 18.1875,16.1241319 18.1111111,14.7777778 L17.9392361,11.7604167 Z M23,8.66666667 C23,8.53298611 22.9140625,8.41840278 22.7899306,8.37065972 L12.0954861,5.00954861 C12.0572917,5 12.0286458,5 12,5 C11.9713542,5 11.9427083,5 11.9045139,5.00954861 L1.21006944,8.37065972 C1.0859375,8.41840278 1,8.53298611 1,8.66666667 C1,8.80034722 1.0859375,8.91493056 1.21006944,8.96267361 L4.38975694,9.95572917 C3.79774306,10.7864583 3.51128472,11.9895833 3.45399306,13.1067708 C3.09114583,13.3168403 2.83333333,13.7083333 2.83333333,14.1666667 C2.83333333,14.5963542 3.05295139,14.96875 3.38715278,15.1883681 L2.83333333,19.3229167 C2.82378472,19.4088542 2.85243056,19.4947917 2.90972222,19.5616319 C2.96701389,19.6284722 3.05295139,19.6666667 3.13888889,19.6666667 L4.97222222,19.6666667 C5.05815972,19.6666667 5.14409722,19.6284722 5.20138889,19.5616319 C5.25868056,19.4947917 5.28732639,19.4088542 5.27777778,19.3229167 L4.72395833,15.1883681 C5.05815972,14.96875 5.27777778,14.5963542 5.27777778,14.1666667 C5.27777778,13.7178819 5.0390625,13.3359375 4.67621528,13.1258681 C4.75260417,11.8368056 5.13454861,10.7864583 5.67881944,10.3567708 L11.9045139,12.3237847 C11.9427083,12.3333333 11.9713542,12.3333333 12,12.3333333 C12.0286458,12.3333333 12.0572917,12.3333333 12.0954861,12.3237847 L22.7899306,8.96267361 C22.9140625,8.91493056 23,8.80034722 23,8.66666667 L23,8.66666667 Z" id="Graduation-Cap---FontAwesome" sketch:type="MSShapeGroup"></path>
        </g>
    </g>
</svg>