<svg xmlns="http://www.w3.org/2000/svg" width="24" height="24" viewBox="0 0 24 24" version="1.1"><title>default-user</title><g stroke="none" stroke-width="1" fill="none" fill-rule="evenodd"><g fill="#9E9E9E"><path d="M20.2 18C20.2 15.3 19.6 11.3 16.2 11.3 15.9 11.3 14.4 12.9 12.1 12.9 9.8 12.9 8.3 11.3 8 11.3 4.6 11.3 4 15.3 4 18 4 19.9 5.2 21 7.1 21L17.1 21C19 21 20.2 19.9 20.2 18L20.2 18ZM16.5 7.5C16.5 5 14.5 3 12.1 3 9.7 3 7.7 5 7.7 7.5 7.7 10 9.7 12 12.1 12 14.5 12 16.5 10 16.5 7.5L16.5 7.5Z"/></g></g></svg>